<svg xmlns="http://www.w3.org/2000/svg" width="32" height="32" viewBox="0 0 32 32"><path fill="none" d="M0 0h32v32H0z"/><path d="M22.519 4.079l-.912.859a.308.308 0 00.424.446l.912-.859a.308.308 0 10-.424-.446zM20.211 3.3l-.035 1.249a.308.308 0 10.615.021l.037-1.252a.309.309 0 10-.617-.018zm-6.588 8.713v1.068a8.126 8.126 0 104.981-.016v-1.056a1.03 1.03 0 00-1.029-1.029h-2.923a1.03 1.03 0 00-1.029 1.033zm.265 4.5a4.821 4.821 0 00-2.589 4.281.764.764 0 11-1.528 0 6.347 6.347 0 013.406-5.633.764.764 0 01.711 1.353zM19.32 5.302a.309.309 0 00.011-.435l-.859-.912a.308.308 0 00-.446.424l.859.912a.314.314 0 00.435.011zm2.2 2.775l.859.912a.308.308 0 10.446-.424l-.859-.912a.308.308 0 10-.446.424zm.518-1.557a.308.308 0 00.3.318l1.252.037a.308.308 0 00.021-.615l-1.252-.037a.3.3 0 00-.321.297zm-6.337 3.699h1.045a4.2 4.2 0 013.607-3.183.516.516 0 00.467-.5.509.509 0 00-.573-.5 5.217 5.217 0 00-4.546 4.183zm4.361-1.837l-.035 1.249a.308.308 0 10.615.021l.037-1.252a.308.308 0 00-.3-.318.3.3 0 00-.317.3z" fill="#fff"/></svg>