<svg xmlns="http://www.w3.org/2000/svg" width="32" height="32" viewBox="0 0 32 32"><defs><style>.a{fill:none;}.b{fill:#fff;}</style></defs><g transform="translate(-96 -224)"><rect class="a" width="32" height="32" transform="translate(96 224)"/><g transform="translate(12.699 227)"><g transform="translate(91.301 0)"><path class="b" d="M347.019,18.8l-.912.859a.308.308,0,0,0,.424.446l.912-.859a.308.308,0,1,0-.424-.446Z" transform="translate(-332.5 -17.721)"/><path class="b" d="M320.835.3,320.8,1.549a.308.308,0,1,0,.615.021l.037-1.252A.308.308,0,1,0,320.835.3Z" transform="translate(-308.624 0)"/><path class="b" d="M96.924,151.532V152.6a8.126,8.126,0,1,0,4.981-.016v-1.056a1.03,1.03,0,0,0-1.029-1.029H97.953A1.03,1.03,0,0,0,96.924,151.532Zm.265,4.5a4.821,4.821,0,0,0-2.589,4.281.764.764,0,1,1-1.528,0,6.347,6.347,0,0,1,3.406-5.633.764.764,0,0,1,.711,1.353Z" transform="translate(-91.301 -142.519)"/><path class="b" d="M280.09,17.656a.309.309,0,0,0,.011-.435l-.859-.912a.308.308,0,0,0-.446.424l.859.912A.314.314,0,0,0,280.09,17.656Z" transform="translate(-268.77 -15.354)"/><path class="b" d="M344.6,86.433l.859.912a.308.308,0,1,0,.446-.424l-.859-.912a.308.308,0,1,0-.446.424Z" transform="translate(-331.08 -81.356)"/><path class="b" d="M355.9,61a.308.308,0,0,0,.3.318l1.252.037a.308.308,0,0,0,.021-.615l-1.252-.037A.3.3,0,0,0,355.9,61Z" transform="translate(-341.862 -57.48)"/><path class="b" d="M236.5,61.224h1.045a4.2,4.2,0,0,1,3.607-3.183.516.516,0,0,0,.467-.5.509.509,0,0,0-.573-.5A5.217,5.217,0,0,0,236.5,61.224Z" transform="translate(-228.799 -54.005)"/><path class="b" d="M318.035,96.1,318,97.349a.308.308,0,1,0,.615.021l.037-1.252a.308.308,0,0,0-.3-.318A.3.3,0,0,0,318.035,96.1Z" transform="translate(-305.973 -90.718)"/></g></g></g></svg>